<svg width="33" height="29" viewBox="0 0 33 29" fill="none" xmlns="http://www.w3.org/2000/svg">
    <path
        d="M0.424316 22.1398L3.12732 26.8118C3.39608 27.3467 3.80813 27.7965 4.31753 28.111C4.82693 28.4254 5.41367 28.5922 6.01232 28.5928H23.9553L20.2313 22.1398H0.424316ZM32.4243 22.1708C32.4229 21.5501 32.2439 20.9429 31.9083 20.4208L21.3923 2.14478C21.1181 1.6256 20.7074 1.19112 20.2045 0.888189C19.7015 0.585259 19.1254 0.425376 18.5383 0.425782H12.9813L29.2213 28.5608L31.7843 24.1288C32.2843 23.2798 32.4253 22.9048 32.4253 22.1708H32.4243ZM17.5853 17.5568L10.3303 4.98878L3.07032 17.5568H17.5853Z"
        fill="white" />
</svg>