<svg width="41" height="25" viewBox="0 0 41 25" fill="none" xmlns="http://www.w3.org/2000/svg">
<path d="M12.0908 0.0698242C13.2596 0.0698242 14.3114 0.17103 15.2758 0.37741C16.2343 0.581805 17.0518 0.919157 17.7424 1.3855C18.4231 1.85183 18.9549 2.47097 19.3379 3.24887C19.709 4.01684 19.8935 4.9773 19.8935 6.11239C19.8935 7.34273 19.6157 8.37066 19.0581 9.19022C18.4965 10.0118 17.669 10.6845 16.5657 11.2044C18.0679 11.639 19.1811 12.399 19.9193 13.4786C20.6615 14.568 21.0247 15.8718 21.0247 17.3998C21.0247 18.64 20.7885 19.7057 20.3142 20.6006C19.8572 21.4823 19.1942 22.2407 18.3814 22.8113C17.5396 23.3975 16.5992 23.8277 15.6052 24.0813C14.563 24.3549 13.4898 24.4923 12.4123 24.4901H0.575195V0.0698242H12.0908ZM11.3943 9.93637C12.3468 9.93637 13.1366 9.71014 13.7597 9.25174C14.3788 8.79929 14.6785 8.05315 14.6785 7.03118C14.6785 6.46363 14.5773 5.99531 14.3788 5.62819C14.1855 5.275 13.8994 4.98132 13.5513 4.77886C13.1871 4.56281 12.785 4.41802 12.3666 4.35221C11.9106 4.26715 11.4474 4.22661 10.9835 4.23116H5.95298V9.93637H11.3943V9.93637ZM11.6939 20.3328C12.2237 20.3328 12.7278 20.2871 13.2021 20.18C13.6803 20.0768 14.105 19.9101 14.4661 19.662C14.8273 19.4239 15.125 19.1004 15.3393 18.6877C15.5556 18.2789 15.6608 17.7451 15.6608 17.1041C15.6608 15.846 15.3056 14.951 14.6031 14.4093C13.8986 13.8735 12.954 13.6075 11.7971 13.6075H5.95298V20.3347H11.6939V20.3328ZM28.6905 20.2514C29.4188 20.9618 30.4685 21.319 31.8338 21.319C32.8121 21.319 33.6575 21.071 34.3699 20.5788C35.0724 20.0847 35.501 19.5568 35.6657 19.0111H39.9421C39.2555 21.1384 38.2137 22.6585 36.7889 23.5733C35.3819 24.4921 33.6694 24.9485 31.6691 24.9485C30.276 24.9485 29.0219 24.7243 27.8987 24.2798C26.8206 23.8599 25.8464 23.2113 25.0431 22.3787C24.2531 21.5266 23.6424 20.5245 23.2472 19.4318C22.8128 18.2235 22.5978 16.9473 22.6122 15.6634C22.6122 14.3418 22.8325 13.1055 23.2651 11.9644C23.6757 10.8615 24.3063 9.85348 25.1185 9.00171C25.9222 8.16825 26.8747 7.5114 27.984 7.02919C29.1505 6.53859 30.4057 6.29404 31.6711 6.31083C33.1673 6.31083 34.4751 6.60056 35.5983 7.18397C36.6875 7.74089 37.6319 8.544 38.3566 9.52956C39.0769 10.5079 39.5909 11.6291 39.9104 12.8852C40.2299 14.1394 40.341 15.4491 40.2497 16.8203H27.4879C27.4899 18.2174 27.9602 19.541 28.6905 20.2514V20.2514ZM34.2707 10.9623C33.6932 10.3233 32.7169 9.97804 31.5222 9.97804C30.7463 9.97804 30.1054 10.107 29.5894 10.3729C29.1177 10.6112 28.6991 10.9427 28.3591 11.3473C28.0604 11.7146 27.839 12.1385 27.7082 12.5935C27.5937 12.9729 27.5199 13.3634 27.4879 13.7584H35.3899C35.2748 12.5201 34.8501 11.6053 34.2707 10.9623V10.9623ZM26.4957 1.70896H36.396V4.12003H26.4957V1.70896Z" fill="white"/>
</svg>
